# xmcd
#
# Track frame offsets:
#	150
#	19632
#	45444
#	73158
#	102642
#	137406
#	148536
#	166046
#	192984
#	215407
#	239032
#	257865
#	286237
#	298990
#	319055
#
# Disc length: 4709 seconds
#
# Revision: 4
# Processed by: cddbd v1.4PL0 Copyright (c) Steve Scherf et al.
# Submitted via: audiograbber 1.81.02
#
DISCID=e912630f
DTITLE=Various Artist - African Blues
DYEAR=1998
DGENRE=Blues
TTITLE0=Ismaël Lo - Talibe
TTITLE1=Rokia Traoré - Mounaïssa
TTITLE2=Orchestra Marrabenta Star De Mocambique - A Va Safy Va Lomo
TTITLE3=Super Rail Band - Mansa
TTITLE4=Balla Et Ses Balladins - Paulette
TTITLE5=Alick Nkhata - Maggie
TTITLE6=Henry Makobi - Omulanga Wamuka
TTITLE7=Ali Farka Toure - Heygana
TTITLE8=Stella Chiweshe - Ndinderere
TTITLE9=Hamza El Din - Shams Esh'shamusa
TTITLE10=Antoine Moundanda - N'Sangou
TTITLE11=Boubacar Traoré - Mouso Teke Soma Ye
TTITLE12=Kanté Manfila and Balla Kalla - Kankan Blues (Extract)
TTITLE13=Césaria Évora - Miss Perfumado (Live)
TTITLE14=Oumou Sangaré - Oumou Sangare
EXTD=World Music Network
EXTT0=Senegal
EXTT1=Mali
EXTT2=Mozambique
EXTT3=Mali
EXTT4=Guinea
EXTT5=Zambia
EXTT6=Kenya
EXTT7=Mali
EXTT8=Zimbabwe
EXTT9=Egypt
EXTT10=Republic Of Congo
EXTT11=Mali
EXTT12=Guinea
EXTT13=Cape Verde
EXTT14=Mali
PLAYORDER=
